<svg width="18" height="17" viewBox="0 0 18 17" fill="none" xmlns="http://www.w3.org/2000/svg">
<path d="M9.00016 2.63755C9.14006 2.63755 9.27423 2.58198 9.37316 2.48305C9.47208 2.38413 9.52766 2.24996 9.52766 2.11005V1.58255C9.52766 1.44265 9.47208 1.30848 9.37316 1.20955C9.27423 1.11063 9.14006 1.05505 9.00016 1.05505C8.86025 1.05505 8.72608 1.11063 8.62716 1.20955C8.52823 1.30848 8.47266 1.44265 8.47266 1.58255V2.11005C8.47266 2.24996 8.52823 2.38413 8.62716 2.48305C8.72608 2.58198 8.86025 2.63755 9.00016 2.63755Z" fill="#B2ABAB"/>
<path d="M9.00016 14.2426C8.86025 14.2426 8.72608 14.2981 8.62716 14.3971C8.52823 14.496 8.47266 14.6302 8.47266 14.7701V15.2976C8.47266 15.4375 8.52823 15.5716 8.62716 15.6706C8.72608 15.7695 8.86025 15.8251 9.00016 15.8251C9.14006 15.8251 9.27423 15.7695 9.37316 15.6706C9.47208 15.5716 9.52766 15.4375 9.52766 15.2976V14.7701C9.52766 14.6302 9.47208 14.496 9.37316 14.3971C9.27423 14.2981 9.14006 14.2426 9.00016 14.2426Z" fill="#B2ABAB"/>
<path d="M15.8577 7.91248H15.3302C15.1903 7.91248 15.0562 7.96805 14.9572 8.06698C14.8583 8.1659 14.8027 8.30007 14.8027 8.43998C14.8027 8.57988 14.8583 8.71405 14.9572 8.81297C15.0562 8.9119 15.1903 8.96748 15.3302 8.96748H15.8577C15.9976 8.96748 16.1318 8.9119 16.2307 8.81297C16.3297 8.71405 16.3852 8.57988 16.3852 8.43998C16.3852 8.30007 16.3297 8.1659 16.2307 8.06698C16.1318 7.96805 15.9976 7.91248 15.8577 7.91248Z" fill="#B2ABAB"/>
<path d="M2.67023 7.91248H2.14273C2.00283 7.91248 1.86866 7.96805 1.76974 8.06698C1.67081 8.1659 1.61523 8.30007 1.61523 8.43998C1.61523 8.57988 1.67081 8.71405 1.76974 8.81297C1.86866 8.9119 2.00283 8.96748 2.14273 8.96748H2.67023C2.81014 8.96748 2.94431 8.9119 3.04323 8.81297C3.14216 8.71405 3.19773 8.57988 3.19773 8.43998C3.19773 8.30007 3.14216 8.1659 3.04323 8.06698C2.94431 7.96805 2.81014 7.91248 2.67023 7.91248Z" fill="#B2ABAB"/>
<path d="M13.4759 3.21782L13.1029 3.59076C13.0526 3.63942 13.0124 3.69763 12.9847 3.76199C12.9571 3.82634 12.9425 3.89556 12.9419 3.9656C12.9413 4.03564 12.9547 4.1051 12.9812 4.16993C13.0077 4.23476 13.0469 4.29366 13.0964 4.34319C13.1459 4.39271 13.2048 4.43188 13.2696 4.45841C13.3345 4.48493 13.4039 4.49828 13.474 4.49767C13.544 4.49706 13.6132 4.48251 13.6776 4.45486C13.742 4.42722 13.8002 4.38703 13.8488 4.33665L14.2223 3.96423C14.2713 3.91522 14.3102 3.85704 14.3367 3.793C14.3632 3.72897 14.3769 3.66034 14.3769 3.59103C14.3769 3.52171 14.3632 3.45308 14.3367 3.38905C14.3102 3.32501 14.2713 3.26683 14.2223 3.21782C14.1733 3.16881 14.1151 3.12993 14.0511 3.10341C13.987 3.07688 13.9184 3.06323 13.8491 3.06323C13.7798 3.06323 13.7111 3.07688 13.6471 3.10341C13.5831 3.12993 13.5249 3.16881 13.4759 3.21782Z" fill="#B2ABAB"/>
<path d="M4.1511 12.543L3.77763 12.9159C3.72862 12.9649 3.68975 13.0231 3.66322 13.0871C3.6367 13.1512 3.62305 13.2198 3.62305 13.2891C3.62305 13.3584 3.6367 13.427 3.66322 13.4911C3.68975 13.5551 3.72862 13.6133 3.77763 13.6623C3.87661 13.7613 4.01086 13.8169 4.15084 13.8169C4.22015 13.8169 4.28878 13.8032 4.35282 13.7767C4.41685 13.7502 4.47504 13.7113 4.52405 13.6623L4.89699 13.2894C4.946 13.2404 4.98488 13.1822 5.01142 13.1182C5.03796 13.0542 5.05163 12.9856 5.05165 12.9163C5.05168 12.8471 5.03806 12.7784 5.01156 12.7144C4.98507 12.6504 4.94623 12.5922 4.89725 12.5432C4.84828 12.4942 4.79013 12.4553 4.72613 12.4288C4.66212 12.4022 4.59352 12.3886 4.52423 12.3885C4.3843 12.3885 4.25008 12.444 4.1511 12.543Z" fill="#B2ABAB"/>
<path d="M13.8485 12.543C13.7491 12.4469 13.6158 12.3937 13.4775 12.3949C13.3392 12.3961 13.2069 12.4516 13.1091 12.5494C13.0113 12.6472 12.9558 12.7795 12.9546 12.9178C12.9534 13.0561 13.0066 13.1894 13.1027 13.2889L13.4756 13.6623C13.5746 13.7613 13.7088 13.8169 13.8488 13.8169C13.9888 13.8169 14.123 13.7613 14.222 13.6623C14.321 13.5633 14.3766 13.4291 14.3766 13.2891C14.3766 13.1491 14.321 13.0149 14.222 12.9159L13.8485 12.543Z" fill="#B2ABAB"/>
<path d="M4.1511 4.33717C4.25059 4.43326 4.38384 4.48643 4.52215 4.48523C4.66046 4.48403 4.79276 4.42855 4.89056 4.33075C4.98837 4.23295 5.04384 4.10064 5.04504 3.96233C5.04625 3.82402 4.99308 3.69078 4.89699 3.59129L4.52405 3.21782C4.42507 3.11884 4.29082 3.06323 4.15084 3.06323C4.01086 3.06323 3.87661 3.11884 3.77763 3.21782C3.67865 3.3168 3.62305 3.45105 3.62305 3.59103C3.62305 3.73101 3.67865 3.86525 3.77763 3.96423L4.1511 4.33717Z" fill="#B2ABAB"/>
<path d="M13.5897 9.22224C13.5216 9.15508 13.4366 9.10767 13.3437 9.08509C13.2508 9.06251 13.1535 9.06561 13.0622 9.09406C12.7082 9.20339 12.3397 9.25818 11.9692 9.25653C10.9654 9.25556 10.003 8.85639 9.2931 8.14663C8.58324 7.43687 8.18394 6.47449 8.18282 5.47066C8.18152 5.10032 8.23666 4.73194 8.34635 4.37821C8.37498 4.28683 8.3782 4.18937 8.35565 4.0963C8.3331 4.00322 8.28564 3.91804 8.21836 3.84989C8.15108 3.78174 8.06651 3.73319 7.97373 3.70946C7.88095 3.68572 7.78346 3.68768 7.69172 3.71514C6.89096 3.95729 6.16663 4.40285 5.58939 5.00835C5.01214 5.61385 4.60168 6.35863 4.39804 7.17003C4.1944 7.98144 4.20453 8.83177 4.42746 9.63809C4.65038 10.4444 5.07848 11.1792 5.66999 11.7708C6.26151 12.3623 6.99626 12.7905 7.80256 13.0135C8.60886 13.2365 9.45919 13.2467 10.2706 13.0431C11.082 12.8396 11.8268 12.4292 12.4324 11.852C13.038 11.2748 13.4836 10.5505 13.7258 9.74974C13.7533 9.65776 13.7551 9.56002 13.7311 9.46707C13.7071 9.37411 13.6582 9.28946 13.5897 9.22224Z" fill="#B2ABAB"/>
</svg>
